<?xml version="1.0" encoding="UTF-8" standalone="no"?>
<!-- Created with Inkscape (http://www.inkscape.org/) -->

<svg
   version="1.1"
   id="svg2"
   width="4000"
   height="2666.6667"
   viewBox="0 0 4000 2666.6667"
   sodipodi:docname="shutterstock_2448563941 (1).eps"
   xmlns:inkscape="http://www.inkscape.org/namespaces/inkscape"
   xmlns:sodipodi="http://sodipodi.sourceforge.net/DTD/sodipodi-0.dtd"
   xmlns="http://www.w3.org/2000/svg"
   xmlns:svg="http://www.w3.org/2000/svg">
  <defs
     id="defs6" />
  <sodipodi:namedview
     id="namedview4"
     pagecolor="#ffffff"
     bordercolor="#000000"
     borderopacity="0.25"
     inkscape:showpageshadow="2"
     inkscape:pageopacity="0.0"
     inkscape:pagecheckerboard="0"
     inkscape:deskcolor="#d1d1d1" />
  <g
     id="g8"
     inkscape:groupmode="layer"
     inkscape:label="ink_ext_XXXXXX"
     transform="matrix(1.3333333,0,0,-1.3333333,0,2666.6667)">
    <g
       id="g10"
       transform="scale(0.1)">
      <path
         d="M 0,0 H 30000 V 20000 H 0 Z"
         style="fill:#aedbf5;fill-opacity:1;fill-rule:nonzero;stroke:none"
         id="path12" />
      <path
         d="m 20903.2,4425.7 c 1110.5,1318.6 1779.7,3021.1 1779.7,4880 0,4186.3 -3393.7,7580 -7580,7580 -4186.4,0 -7580.04,-3393.7 -7580.04,-7580 0,-1858.9 669.18,-3561.4 1779.7,-4880 H 20903.2"
         style="fill:#b6e3f8;fill-opacity:1;fill-rule:nonzero;stroke:none"
         id="path14" />
      <path
         d="m 21052.9,14775.7 h -3200 c -204.4,0 -370,165.7 -370,370 v 0 c 0,204.4 165.6,370 370,370 h 3200 c 204.3,0 370,-165.6 370,-370 v 0 c 0,-204.3 -165.7,-370 -370,-370"
         style="fill:#aedbf5;fill-opacity:1;fill-rule:nonzero;stroke:none"
         id="path16" />
      <path
         d="m 8472.86,8595.7 h -1680 c -204.35,0 -370,165.7 -370,370 v 0 c 0,204.4 165.65,370 370,370 h 1680 c 204.34,0 370,-165.6 370,-370 v 0 c 0,-204.3 -165.66,-370 -370,-370"
         style="fill:#aedbf5;fill-opacity:1;fill-rule:nonzero;stroke:none"
         id="path18" />
      <path
         d="m 12952.9,15775.7 h -2240 c -149.2,0 -270,120.9 -270,270 v 0 c 0,149.1 120.8,270 270,270 h 2240 c 149.1,0 270,-120.9 270,-270 v 0 c 0,-149.1 -120.9,-270 -270,-270"
         style="fill:#aedbf5;fill-opacity:1;fill-rule:nonzero;stroke:none"
         id="path20" />
      <path
         d="M 24549.3,4171.2 H 5079.29 c -91.13,0 -165,73.9 -165,165 0,91.1 73.87,165 165,165 H 24549.3 c 91.1,0 165,-73.9 165,-165 0,-91.1 -73.9,-165 -165,-165"
         style="fill:#8dccf0;fill-opacity:1;fill-rule:nonzero;stroke:none"
         id="path22" />
      <path
         d="M 21048.5,3511.2 H 8580.04 c -91.13,0 -165,73.9 -165,165 0,91.1 73.87,165 165,165 H 21048.5 c 91.2,0 165,-73.9 165,-165 0,-91.1 -73.8,-165 -165,-165"
         style="fill:#8dccf0;fill-opacity:1;fill-rule:nonzero;stroke:none"
         id="path24" />
      <path
         d="m 19030,4006.2 c 0,91.1 73.9,165 165,165 h -8761.5 c 91.2,0 165,-73.9 165,-165 0,-91.1 -73.8,-165 -165,-165 H 19195 c -91.1,0 -165,73.9 -165,165"
         style="fill:#8dccf0;fill-opacity:1;fill-rule:nonzero;stroke:none"
         id="path26" />
      <path
         d="m 22154,3511.2 h -429 c -91.1,0 -165,73.9 -165,165 0,91.1 73.9,165 165,165 h 429 c 91.2,0 165,-73.9 165,-165 0,-91.1 -73.8,-165 -165,-165"
         style="fill:#8dccf0;fill-opacity:1;fill-rule:nonzero;stroke:none"
         id="path28" />
      <path
         d="m 7749.54,3511.2 h -198 c -91.13,0 -165,73.9 -165,165 0,91.1 73.87,165 165,165 h 198 c 91.12,0 165,-73.9 165,-165 0,-91.1 -73.88,-165 -165,-165"
         style="fill:#8dccf0;fill-opacity:1;fill-rule:nonzero;stroke:none"
         id="path30" />
      <path
         d="m 16150.8,4685.8 h -2343 v 1699.5 h 2343 V 4685.8"
         style="fill:#2b3172;fill-opacity:1;fill-rule:nonzero;stroke:none"
         id="path32" />
      <path
         d="m 16150.8,5692.3 h -1864.4 c -264.3,0 -478.6,214.3 -478.6,478.6 v 214.4 h 2343 v -693"
         style="fill:#1e214f;fill-opacity:1;fill-rule:nonzero;stroke:none"
         id="path34" />
      <path
         d="m 19566.3,6385.3 h -9058.5 c -182.3,0 -330,147.7 -330,330 v 5841 c 0,182.2 147.7,330 330,330 h 9058.5 c 182.2,0 330,-147.8 330,-330 v -5841 c 0,-182.3 -147.8,-330 -330,-330"
         style="fill:#2b3172;fill-opacity:1;fill-rule:nonzero;stroke:none"
         id="path36" />
      <path
         d="m 16992.3,4487.8 h -4158 v 200.7 c 0,116.9 94.8,211.8 211.8,211.8 h 3734.4 c 117,0 211.8,-94.9 211.8,-211.8 v -200.7"
         style="fill:#f5f6f5;fill-opacity:1;fill-rule:nonzero;stroke:none"
         id="path38" />
      <path
         d="m 20077.8,7391.8 h -8118 c -182.3,0 -330,147.7 -330,330 v 5758.5 c 0,182.2 147.7,330 330,330 h 8118 c 182.2,0 330,-147.8 330,-330 V 7721.8 c 0,-182.3 -147.8,-330 -330,-330"
         style="fill:#f5f6f5;fill-opacity:1;fill-rule:nonzero;stroke:none"
         id="path40" />
      <path
         d="m 20077.8,7391.8 h -8118 c -182.3,0 -330,147.7 -330,330 v 5758.5 c 0,182.2 147.7,330 330,330 h 8118 c 182.2,0 330,-147.8 330,-330 V 7721.8 c 0,-182.3 -147.8,-330 -330,-330"
         style="fill:#f5f6f5;fill-opacity:1;fill-rule:nonzero;stroke:none"
         id="path42" />
      <path
         d="m 20077.8,13810.3 h -8118 c -182.3,0 -330,-147.8 -330,-330 v -66 c 0,182.2 147.7,330 330,330 h 8118 c 182.2,0 330,-147.8 330,-330 v 66 c 0,182.2 -147.8,330 -330,330"
         style="fill:#ffffff;fill-opacity:1;fill-rule:nonzero;stroke:none"
         id="path44" />
      <path
         d="m 16975.8,12770.8 h -4653 c -109.4,0 -198,88.6 -198,198 0,109.3 88.6,198 198,198 h 4653 c 109.3,0 198,-88.7 198,-198 0,-109.4 -88.7,-198 -198,-198"
         style="fill:#aedbf5;fill-opacity:1;fill-rule:nonzero;stroke:none"
         id="path46" />
      <path
         d="m 19516.8,12968.8 c 0,72.9 59.1,132 132,132 72.9,0 132,-59.1 132,-132 0,-72.9 -59.1,-132 -132,-132 -72.9,0 -132,59.1 -132,132"
         style="fill:#f14923;fill-opacity:1;fill-rule:nonzero;stroke:none"
         id="path48" />
      <path
         d="m 19021.8,12968.8 c 0,72.9 59.1,132 132,132 72.9,0 132,-59.1 132,-132 0,-72.9 -59.1,-132 -132,-132 -72.9,0 -132,59.1 -132,132"
         style="fill:#4ac2ba;fill-opacity:1;fill-rule:nonzero;stroke:none"
         id="path50" />
      <path
         d="m 18526.8,12968.8 c 0,72.9 59.1,132 132,132 72.9,0 132,-59.1 132,-132 0,-72.9 -59.1,-132 -132,-132 -72.9,0 -132,59.1 -132,132"
         style="fill:#f09611;fill-opacity:1;fill-rule:nonzero;stroke:none"
         id="path52" />
      <path
         d="m 19723,12209.8 h -3828 c -31.9,0 -57.7,25.8 -57.7,57.7 0,31.9 25.8,57.8 57.7,57.8 h 3828 c 31.9,0 57.8,-25.9 57.8,-57.8 0,-31.9 -25.9,-57.7 -57.8,-57.7"
         style="fill:#aedbf5;fill-opacity:1;fill-rule:nonzero;stroke:none"
         id="path54" />
      <path
         d="m 19723,11879.8 h -3828 c -31.9,0 -57.7,25.8 -57.7,57.7 0,31.9 25.8,57.8 57.7,57.8 h 3828 c 31.9,0 57.8,-25.9 57.8,-57.8 0,-31.9 -25.9,-57.7 -57.8,-57.7"
         style="fill:#aedbf5;fill-opacity:1;fill-rule:nonzero;stroke:none"
         id="path56" />
      <path
         d="m 19723,11549.8 h -3828 c -31.9,0 -57.7,25.8 -57.7,57.7 0,31.9 25.8,57.8 57.7,57.8 h 3828 c 31.9,0 57.8,-25.9 57.8,-57.8 0,-31.9 -25.9,-57.7 -57.8,-57.7"
         style="fill:#aedbf5;fill-opacity:1;fill-rule:nonzero;stroke:none"
         id="path58" />
      <path
         d="m 19723,11219.8 h -3828 c -31.9,0 -57.7,25.8 -57.7,57.7 0,31.9 25.8,57.8 57.7,57.8 h 3828 c 31.9,0 57.8,-25.9 57.8,-57.8 0,-31.9 -25.9,-57.7 -57.8,-57.7"
         style="fill:#aedbf5;fill-opacity:1;fill-rule:nonzero;stroke:none"
         id="path60" />
      <path
         d="m 19723,10889.8 h -3828 c -31.9,0 -57.7,25.8 -57.7,57.7 0,31.9 25.8,57.8 57.7,57.8 h 3828 c 31.9,0 57.8,-25.9 57.8,-57.8 0,-31.9 -25.9,-57.7 -57.8,-57.7"
         style="fill:#aedbf5;fill-opacity:1;fill-rule:nonzero;stroke:none"
         id="path62" />
      <path
         d="m 19723,10559.8 h -3828 c -31.9,0 -57.7,25.8 -57.7,57.7 0,31.9 25.8,57.8 57.7,57.8 h 3828 c 31.9,0 57.8,-25.9 57.8,-57.8 0,-31.9 -25.9,-57.7 -57.8,-57.7"
         style="fill:#aedbf5;fill-opacity:1;fill-rule:nonzero;stroke:none"
         id="path64" />
      <path
         d="m 17652.3,8282.8 h -1650 c -91.1,0 -165,73.9 -165,165 v 1650 c 0,91.1 73.9,165 165,165 h 1650 c 91.1,0 165,-73.9 165,-165 v -1650 c 0,-91.1 -73.9,-165 -165,-165"
         style="fill:#aedbf5;fill-opacity:1;fill-rule:nonzero;stroke:none"
         id="path66" />
      <path
         d="m 19681.8,9338.8 h -1551 c -54.7,0 -99,44.3 -99,99 v 726 c 0,54.7 44.3,99 99,99 h 1551 c 54.7,0 99,-44.3 99,-99 v -726 c 0,-54.7 -44.3,-99 -99,-99"
         style="fill:#f6d294;fill-opacity:1;fill-rule:nonzero;stroke:none"
         id="path68" />
      <path
         d="m 19681.8,8282.8 h -1551 c -54.7,0 -99,44.3 -99,99 v 643.5 c 0,54.7 44.3,99 99,99 h 1551 c 54.7,0 99,-44.3 99,-99 v -643.5 c 0,-54.7 -44.3,-99 -99,-99"
         style="fill:#f09611;fill-opacity:1;fill-rule:nonzero;stroke:none"
         id="path70" />
      <path
         d="m 16634.9,9501 367.8,-183.9 c 36.5,-18.3 36.5,-70.4 0,-88.6 l -367.8,-183.9 c -32.9,-16.5 -71.6,7.5 -71.6,44.3 v 367.8 c 0,36.8 38.7,60.7 71.6,44.3"
         style="fill:#f5f6f5;fill-opacity:1;fill-rule:nonzero;stroke:none"
         id="path72" />
      <path
         d="m 15457.8,9437.8 h -3283.5 c -27.4,0 -49.5,22.1 -49.5,49.5 0,27.3 22.1,49.5 49.5,49.5 h 3283.5 c 27.3,0 49.5,-22.2 49.5,-49.5 0,-27.4 -22.2,-49.5 -49.5,-49.5"
         style="fill:#aedbf5;fill-opacity:1;fill-rule:nonzero;stroke:none"
         id="path74" />
      <path
         d="m 15457.8,9107.8 h -3283.5 c -27.4,0 -49.5,22.1 -49.5,49.5 0,27.3 22.1,49.5 49.5,49.5 h 3283.5 c 27.3,0 49.5,-22.2 49.5,-49.5 0,-27.4 -22.2,-49.5 -49.5,-49.5"
         style="fill:#aedbf5;fill-opacity:1;fill-rule:nonzero;stroke:none"
         id="path76" />
      <path
         d="m 15457.8,8777.8 h -3283.5 c -27.4,0 -49.5,22.1 -49.5,49.5 0,27.3 22.1,49.5 49.5,49.5 h 3283.5 c 27.3,0 49.5,-22.2 49.5,-49.5 0,-27.4 -22.2,-49.5 -49.5,-49.5"
         style="fill:#aedbf5;fill-opacity:1;fill-rule:nonzero;stroke:none"
         id="path78" />
      <path
         d="m 15457.8,8447.8 h -3283.5 c -27.4,0 -49.5,22.1 -49.5,49.5 0,27.3 22.1,49.5 49.5,49.5 h 3283.5 c 27.3,0 49.5,-22.2 49.5,-49.5 0,-27.4 -22.2,-49.5 -49.5,-49.5"
         style="fill:#aedbf5;fill-opacity:1;fill-rule:nonzero;stroke:none"
         id="path80" />
      <path
         d="m 15358.8,9800.8 h -3069 c -91.1,0 -165,73.9 -165,165 v 2194.5 c 0,91.1 73.9,165 165,165 h 3069 c 91.1,0 165,-73.9 165,-165 V 9965.8 c 0,-91.1 -73.9,-165 -165,-165"
         style="fill:#aedbf5;fill-opacity:1;fill-rule:nonzero;stroke:none"
         id="path82" />
      <path
         d="M 14629.6,11598.6 12831.8,9800.8 h 2527 c 91.1,0 165,73.9 165,165 v 1041.9 l -590.8,590.9 c -83.8,83.7 -219.6,83.7 -303.4,0"
         style="fill:#f6d294;fill-opacity:1;fill-rule:nonzero;stroke:none"
         id="path84" />
      <path
         d="m 12748.6,11021.1 -623.8,-623.9 v -431.4 c 0,-91.1 73.9,-165 165,-165 h 1982.4 L 13052,11021.1 c -83.8,83.7 -219.6,83.7 -303.4,0"
         style="fill:#f8edd9;fill-opacity:1;fill-rule:nonzero;stroke:none"
         id="path86" />
      <path
         d="m 13378.8,11483.8 c 0,63.8 51.7,115.5 115.5,115.5 63.8,0 115.5,-51.7 115.5,-115.5 0,-63.8 -51.7,-115.5 -115.5,-115.5 -63.8,0 -115.5,51.7 -115.5,115.5"
         style="fill:#f5f6f5;fill-opacity:1;fill-rule:nonzero;stroke:none"
         id="path88" />
      <path
         d="m 14933,11598.6 c -83.8,83.7 -219.6,83.7 -303.4,0 l -867.6,-867.7 c 182.4,-108.6 395.5,-171.1 623.3,-171.1 430.7,0 809,223.2 1026.4,560 l -478.7,478.8"
         style="fill:#f5f6f5;fill-opacity:1;fill-rule:nonzero;stroke:none"
         id="path90" />
      <path
         d="m 12900.3,10444.3 c 199.3,0 377.5,90.6 495.5,232.9 l -343.8,343.9 c -83.8,83.7 -219.6,83.7 -303.4,0 l -343.8,-343.9 c 118,-142.3 296.2,-232.9 495.5,-232.9"
         style="fill:#f5f6f5;fill-opacity:1;fill-rule:nonzero;stroke:none"
         id="path92" />
      <path
         d="m 19245.3,6385.3 h 321 c 182.2,0 330,147.7 330,330 v 676.5 h -3960 l 3309,-1006.5"
         style="fill:#1e214f;fill-opacity:1;fill-rule:nonzero;stroke:none"
         id="path94" />
      <path
         d="m 22015.5,7290.7 c -151.6,-151.6 -397.4,-151.6 -548.9,0 -151.6,151.5 -151.6,397.3 0,548.8 151.5,151.6 397.3,151.6 548.9,0 151.5,-151.5 151.5,-397.3 0,-548.8 z m 192.1,896.8 c -485.9,448 -1237.6,803.3 -1693.5,992 l -363.2,-363.3 c 188.7,-455.8 543.9,-1207.5 991.9,-1693.5 290.1,-314.7 783.9,-324.4 1086.6,-21.7 v 0 c 302.6,302.6 292.9,796.4 -21.8,1086.5"
         style="fill:#3898a8;fill-opacity:1;fill-rule:nonzero;stroke:none"
         id="path96" />
      <path
         d="m 20150.9,8816.2 88.3,-191.3 c 102.4,-221.9 394.6,-274 567.4,-101.2 v 0 c 172.8,172.9 120.7,465 -101.2,567.5 l -191.3,88.3 -363.2,-363.3"
         style="fill:#235b74;fill-opacity:1;fill-rule:nonzero;stroke:none"
         id="path98" />
      <path
         d="m 20263.9,9058.4 c -538.6,-538.5 -1414.9,-538.5 -1953.4,0 -538.6,538.6 -538.6,1414.9 0,1953.4 538.5,538.6 1414.8,538.6 1953.4,0 538.5,-538.5 538.5,-1414.8 0,-1953.4 m -2357,2357 c -762.3,-762.3 -762.3,-1998.3 0,-2760.6 762.3,-762.3 1998.2,-762.3 2760.6,0 762.3,762.3 762.3,1998.3 0,2760.6 -762.4,762.3 -1998.3,762.3 -2760.6,0"
         style="fill:#3898a8;fill-opacity:1;fill-rule:nonzero;stroke:none"
         id="path100" />
      <path
         d="m 20407.8,9227.4 v 1615.5 c 173.3,-240.2 260,-524 260,-807.8 0,-283.8 -86.7,-567.6 -260,-807.7"
         style="fill:#b5daf4;fill-opacity:1;fill-rule:nonzero;stroke:none"
         id="path102" />
      <path
         d="m 19780.8,8745.1 v 280.2 c 0,54.7 -44.3,99 -99,99 h -1433.1 c -61.7,70.3 -115,145.3 -160.1,223.9 12.8,-6.1 27.1,-9.4 42.2,-9.4 h 1551 c 54.7,0 99,44.3 99,99 v 726 c 0,20.4 -6.2,39.4 -16.8,55.1 129.1,82 214.8,226.2 214.8,390.4 0,255.1 -206.9,462 -462,462 -87.1,0 -168.6,-24.1 -238.1,-66 H 18304 c 2.1,2.2 4.3,4.3 6.5,6.5 81.7,81.7 171.2,151.1 266.1,208 H 19723 c 31.9,0 57.8,25.8 57.8,57.7 0,31.9 -25.9,57.8 -57.8,57.8 h -901.9 c 150.4,53.6 308.2,80.4 466.1,80.4 353.7,0 707.4,-134.6 976.7,-403.9 53.2,-53.2 101.2,-109.7 143.9,-168.9 V 9227.4 c -42.7,-59.2 -90.7,-115.7 -143.9,-169 -141.8,-141.7 -306.9,-246.2 -483.1,-313.3 m -1749,713.7 c -83.5,182.4 -125.3,379.3 -125.3,576.3 0,178.5 34.4,357 102.9,524.7 h 1048 c 12.6,-117.9 69.5,-222.6 153.8,-297 h -1080.4 c -54.7,0 -99,-44.3 -99,-99 v -705 m 1027.7,1216.5 h -996.4 c 39,74.7 85.3,146.5 138.9,214.5 h 947.7 c -46.9,-61.3 -78.8,-134.6 -90.2,-214.5"
         style="fill:#e9e7f0;fill-opacity:1;fill-rule:nonzero;stroke:none"
         id="path104" />
      <path
         d="m 19723,11219.8 h -1146.4 c 78.3,46.9 160.2,85.4 244.5,115.5 h 901.9 c 31.9,0 57.8,-25.9 57.8,-57.8 0,-31.9 -25.9,-57.7 -57.8,-57.7"
         style="fill:#b0d2ef;fill-opacity:1;fill-rule:nonzero;stroke:none"
         id="path106" />
      <path
         d="M 19149.7,10889.8 H 18202 c 31.4,39.9 65.5,78.5 102,115.5 h 974.7 c -50,-30.1 -93.8,-69.4 -129,-115.5"
         style="fill:#b0d2ef;fill-opacity:1;fill-rule:nonzero;stroke:none"
         id="path108" />
      <path
         d="m 19057.4,10559.8 h -1048 c 16,39.1 33.9,77.7 53.7,115.5 h 996.4 c -3.1,-21.6 -4.7,-43.6 -4.7,-66 0,-16.7 0.9,-33.3 2.6,-49.5"
         style="fill:#b0d2ef;fill-opacity:1;fill-rule:nonzero;stroke:none"
         id="path110" />
      <path
         d="m 19681.8,9338.8 h -1551 c -15.1,0 -29.4,3.3 -42.2,9.4 -20.7,36.1 -39.6,73.1 -56.8,110.6 v 705 c 0,54.7 44.3,99 99,99 h 1080.4 c 81.4,-71.9 188.4,-115.5 305.6,-115.5 90.9,0 175.7,26.3 247.2,71.6 10.6,-15.7 16.8,-34.7 16.8,-55.1 v -726 c 0,-54.7 -44.3,-99 -99,-99"
         style="fill:#eacca3;fill-opacity:1;fill-rule:nonzero;stroke:none"
         id="path112" />
      <path
         d="m 19287.2,8654.5 c -353.7,0 -707.5,134.6 -976.7,403.9 -21.5,21.4 -42.1,43.4 -61.8,65.9 h 1433.1 c 54.7,0 99,-44.3 99,-99 v -280.2 c -158.6,-60.4 -326.1,-90.6 -493.6,-90.6"
         style="fill:#e49d1d;fill-opacity:1;fill-rule:nonzero;stroke:none"
         id="path114" />
      <path
         d="m 19287.2,8654.5 c -353.7,0 -707.5,134.6 -976.7,403.9 -269.3,269.3 -404,623 -404,976.7 0,-197 41.8,-393.9 125.3,-576.3 17.2,-37.5 36.1,-74.5 56.8,-110.6 45.1,-78.6 98.4,-153.6 160.1,-223.9 19.7,-22.5 40.3,-44.5 61.8,-65.9 269.2,-269.3 623,-403.9 976.7,-403.9 167.5,0 335,30.2 493.6,90.6 176.2,67.1 341.3,171.6 483.1,313.3 53.2,53.3 101.2,109.8 143.9,169 173.3,240.1 260,523.9 260,807.7 0,-353.7 -134.7,-707.4 -403.9,-976.7 -269.3,-269.3 -623,-403.9 -976.7,-403.9"
         style="fill:#429eb1;fill-opacity:1;fill-rule:nonzero;stroke:none"
         id="path116" />
      <path
         d="m 19764,10218.9 c -17.8,26.5 -48,43.9 -82.2,43.9 h -470.6 c -84.3,74.4 -141.2,179.1 -153.8,297 h 665.6 c 31.9,0 57.8,25.8 57.8,57.7 0,31.9 -25.9,57.8 -57.8,57.8 h -663.5 c 11.4,79.9 43.3,153.2 90.2,214.5 h 573.3 c 31.9,0 57.8,25.8 57.8,57.7 0,31.9 -25.9,57.8 -57.8,57.8 h -444.3 c 69.5,41.9 151,66 238.1,66 255.1,0 462,-206.9 462,-462 0,-164.2 -85.7,-308.4 -214.8,-390.4"
         style="fill:#eeedf3;fill-opacity:1;fill-rule:nonzero;stroke:none"
         id="path118" />
      <path
         d="m 19723,10889.8 h -573.3 c 35.2,46.1 79,85.4 129,115.5 h 444.3 c 31.9,0 57.8,-25.9 57.8,-57.8 0,-31.9 -25.9,-57.7 -57.8,-57.7"
         style="fill:#c1def4;fill-opacity:1;fill-rule:nonzero;stroke:none"
         id="path120" />
      <path
         d="m 19723,10559.8 h -665.6 c -1.7,16.2 -2.6,32.8 -2.6,49.5 0,22.4 1.6,44.4 4.7,66 h 663.5 c 31.9,0 57.8,-25.9 57.8,-57.8 0,-31.9 -25.9,-57.7 -57.8,-57.7"
         style="fill:#c1def4;fill-opacity:1;fill-rule:nonzero;stroke:none"
         id="path122" />
      <path
         d="m 19516.8,10147.3 c -117.2,0 -224.2,43.6 -305.6,115.5 h 470.6 c 34.2,0 64.4,-17.4 82.2,-43.9 -71.5,-45.3 -156.3,-71.6 -247.2,-71.6"
         style="fill:#efd8b5;fill-opacity:1;fill-rule:nonzero;stroke:none"
         id="path124" />
      <path
         d="m 21579.8,12655.3 -634.1,-476.3 c -65.2,-49 -158.4,-2.5 -158.4,79.2 v 1009.4 l 792.5,-612.3"
         style="fill:#f5f6f5;fill-opacity:1;fill-rule:nonzero;stroke:none"
         id="path126" />
      <path
         d="m 21265.8,14288.8 h 759 c 264.3,0 478.5,-214.2 478.5,-478.5 v -759 c 0,-264.3 -214.2,-478.5 -478.5,-478.5 h -759 c -264.3,0 -478.5,214.2 -478.5,478.5 v 759 c 0,264.3 214.2,478.5 478.5,478.5"
         style="fill:#ffffff;fill-opacity:1;fill-rule:nonzero;stroke:none"
         id="path128" />
      <path
         d="m 21983.5,13562.8 h -693 c -22.7,0 -41.2,18.5 -41.2,41.2 0,22.8 18.5,41.3 41.2,41.3 h 693 c 22.8,0 41.3,-18.5 41.3,-41.3 0,-22.7 -18.5,-41.2 -41.3,-41.2"
         style="fill:#f5f6f5;fill-opacity:1;fill-rule:nonzero;stroke:none"
         id="path130" />
      <path
         d="m 21983.5,13397.8 h -693 c -22.7,0 -41.2,18.5 -41.2,41.2 0,22.8 18.5,41.3 41.2,41.3 h 693 c 22.8,0 41.3,-18.5 41.3,-41.3 0,-22.7 -18.5,-41.2 -41.3,-41.2"
         style="fill:#f5f6f5;fill-opacity:1;fill-rule:nonzero;stroke:none"
         id="path132" />
      <path
         d="m 21983.5,13232.8 h -693 c -22.7,0 -41.2,18.5 -41.2,41.2 0,22.8 18.5,41.3 41.2,41.3 h 693 c 22.8,0 41.3,-18.5 41.3,-41.3 0,-22.7 -18.5,-41.2 -41.3,-41.2"
         style="fill:#f5f6f5;fill-opacity:1;fill-rule:nonzero;stroke:none"
         id="path134" />
      <path
         d="M 10829.5,8365.3 H 8156.54 c -90.75,0 -165,74.2 -165,165 v 2673 c 0,90.7 74.25,165 165,165 h 2672.96 c 90.8,0 165,-74.3 165,-165 v -2673 c 0,-90.8 -74.2,-165 -165,-165"
         style="fill:#f5f6f5;fill-opacity:1;fill-rule:nonzero;stroke:none"
         id="path136" />
      <path
         d="M 10689.3,9173.8 H 8296.79 c -91.13,0 -165,73.9 -165,165 v 1633.5 c 0,91.1 73.87,165 165,165 h 2392.51 c 91.1,0 165,-73.9 165,-165 V 9338.8 c 0,-91.1 -73.9,-165 -165,-165"
         style="fill:#e9e8e7;fill-opacity:1;fill-rule:nonzero;stroke:none"
         id="path138" />
      <path
         d="M 10854.3,10972.3 V 9338.8 c 0,-91.1 -73.9,-165 -165,-165 H 8296.79 c -91.08,0 -165,73.9 -165,165 v 1633.5 c 0,91.1 73.92,165 165,165 h 2392.51 c 91.1,0 165,-73.9 165,-165"
         style="fill:#e9e8e7;fill-opacity:1;fill-rule:nonzero;stroke:none"
         id="path140" />
      <path
         d="m 8676.29,9371.8 h -330 v 1551 h 330 v -1551"
         style="fill:#ccccc9;fill-opacity:1;fill-rule:nonzero;stroke:none"
         id="path142" />
      <path
         d="m 9171.29,9371.8 h -330 v 1551 h 330 v -1551"
         style="fill:#ccccc9;fill-opacity:1;fill-rule:nonzero;stroke:none"
         id="path144" />
      <path
         d="m 9666.29,9371.8 h -330 v 1551 h 330 v -1551"
         style="fill:#ccccc9;fill-opacity:1;fill-rule:nonzero;stroke:none"
         id="path146" />
      <path
         d="m 10161.3,9371.8 h -330.01 v 1551 h 330.01 v -1551"
         style="fill:#ccccc9;fill-opacity:1;fill-rule:nonzero;stroke:none"
         id="path148" />
      <path
         d="m 10656.3,9371.8 h -330 v 1551 h 330 v -1551"
         style="fill:#ccccc9;fill-opacity:1;fill-rule:nonzero;stroke:none"
         id="path150" />
      <path
         d="m 8140.04,8810.8 c 0,109.3 88.64,198 198,198 109.35,0 198,-88.7 198,-198 0,-109.4 -88.65,-198 -198,-198 -109.36,0 -198,88.6 -198,198"
         style="fill:#e9e8e7;fill-opacity:1;fill-rule:nonzero;stroke:none"
         id="path152" />
      <path
         d="M 10186,8942.8 H 8767.04 c -18.23,0 -33,14.8 -33,33 0,18.2 14.77,33 33,33 H 10186 c 18.3,0 33,-14.8 33,-33 0,-18.2 -14.7,-33 -33,-33"
         style="fill:#e9e8e7;fill-opacity:1;fill-rule:nonzero;stroke:none"
         id="path154" />
      <path
         d="M 10186,8777.8 H 8767.04 c -18.23,0 -33,14.8 -33,33 0,18.2 14.77,33 33,33 H 10186 c 18.3,0 33,-14.8 33,-33 0,-18.2 -14.7,-33 -33,-33"
         style="fill:#e9e8e7;fill-opacity:1;fill-rule:nonzero;stroke:none"
         id="path156" />
      <path
         d="m 9113.54,8612.8 h -346.5 c -18.23,0 -33,14.8 -33,33 0,18.2 14.77,33 33,33 h 346.5 c 18.22,0 33,-14.8 33,-33 0,-18.2 -14.78,-33 -33,-33"
         style="fill:#e9e8e7;fill-opacity:1;fill-rule:nonzero;stroke:none"
         id="path158" />
      <path
         d="m 8676.29,9371.8 h -330 v 544.5 h 330 v -544.5"
         style="fill:#f14923;fill-opacity:1;fill-rule:nonzero;stroke:none"
         id="path160" />
      <path
         d="m 9171.29,9371.8 h -330 v 907.5 h 330 v -907.5"
         style="fill:#f14923;fill-opacity:1;fill-rule:nonzero;stroke:none"
         id="path162" />
      <path
         d="m 9666.29,9371.8 h -330 v 544.5 h 330 v -544.5"
         style="fill:#f14923;fill-opacity:1;fill-rule:nonzero;stroke:none"
         id="path164" />
      <path
         d="m 10161.3,9371.8 h -330.01 v 1072.5 h 330.01 V 9371.8"
         style="fill:#f14923;fill-opacity:1;fill-rule:nonzero;stroke:none"
         id="path166" />
      <path
         d="m 10656.3,9371.8 h -330 v 1237.5 h 330 V 9371.8"
         style="fill:#f14923;fill-opacity:1;fill-rule:nonzero;stroke:none"
         id="path168" />
      <path
         d="m 9471.95,7466 c 0,160.5 -130.11,290.7 -290.62,290.7 -101.11,0 -190.13,-51.7 -242.19,-130 -52.06,78.3 -141.07,130 -242.19,130 -160.5,0 -290.62,-130.2 -290.62,-290.7 0,-319.7 552.19,-581.2 552.19,-581.2 0,0 513.43,261.5 513.43,581.2"
         style="fill:#f14923;fill-opacity:1;fill-rule:nonzero;stroke:none"
         id="path170" />
      <path
         d="m 9327.33,7493.4 c -5.52,0 -10,4.5 -10,10 0,25.4 -7.12,50.2 -20.59,71.6 -2.95,4.7 -1.54,10.8 3.13,13.8 4.69,2.9 10.85,1.5 13.79,-3.2 15.49,-24.6 23.67,-53 23.67,-82.2 0,-5.5 -4.47,-10 -10,-10"
         style="fill:#ffffff;fill-opacity:1;fill-rule:nonzero;stroke:none"
         id="path172" />
      <path
         d="m 9255.03,7618.7 c -1.69,0 -3.42,0.4 -5,1.3 -20.35,11.8 -43.63,18 -67.31,18 -5.53,0 -10,4.5 -10,10 0,5.5 4.47,10 10,10 27.19,0 53.94,-7.1 77.33,-20.7 4.78,-2.8 6.42,-8.9 3.65,-13.7 -1.85,-3.2 -5.21,-4.9 -8.67,-4.9"
         style="fill:#ffffff;fill-opacity:1;fill-rule:nonzero;stroke:none"
         id="path174" />
      <path
         d="m 9765.29,12440.8 h -561 c -154.68,0 -280.5,125.8 -280.5,280.5 0,154.6 125.82,280.5 280.5,280.5 h 561 c 154.67,0 280.51,-125.9 280.51,-280.5 0,-154.7 -125.84,-280.5 -280.51,-280.5 z m 0,825 h -561 c -300.24,0 -544.5,-244.3 -544.5,-544.5 0,-300.3 244.26,-544.5 544.5,-544.5 h 561 c 300.21,0 544.51,244.2 544.51,544.5 0,300.2 -244.3,544.5 -544.51,544.5"
         style="fill:#474991;fill-opacity:1;fill-rule:nonzero;stroke:none"
         id="path176" />
      <path
         d="m 10458.3,12440.8 h -561.01 c -154.68,0 -280.5,125.8 -280.5,280.5 0,154.6 125.82,280.5 280.5,280.5 h 561.01 c 154.7,0 280.5,-125.9 280.5,-280.5 0,-154.7 -125.8,-280.5 -280.5,-280.5 z m 0,825 h -561.01 c -300.24,0 -544.5,-244.3 -544.5,-544.5 0,-300.3 244.26,-544.5 544.5,-544.5 h 561.01 c 300.2,0 544.5,244.2 544.5,544.5 0,300.2 -244.3,544.5 -544.5,544.5"
         style="fill:#f14923;fill-opacity:1;fill-rule:nonzero;stroke:none"
         id="path178" />
      <path
         d="m 9765.29,13001.8 h 466.51 c -95.4,158 -268.81,264 -466.51,264 h -478.5 v -264 h 478.5"
         style="fill:#474991;fill-opacity:1;fill-rule:nonzero;stroke:none"
         id="path180" />
      <path
         d="m 21467.1,11170.3 c 0,546.7 443.2,990 990,990 546.7,0 990,-443.3 990,-990 0,-546.8 -443.3,-990 -990,-990 -546.8,0 -990,443.2 -990,990"
         style="fill:#474991;fill-opacity:1;fill-rule:nonzero;stroke:none"
         id="path182" />
      <path
         d="m 22457.1,10345.3 c -454.9,0 -825,370.1 -825,825 0,454.9 370.1,825 825,825 454.9,0 825,-370.1 825,-825 0,-454.9 -370.1,-825 -825,-825"
         style="fill:#ffffff;fill-opacity:1;fill-rule:nonzero;stroke:none"
         id="path184" />
      <path
         d="m 22479.1,11747.8 h -33 v 99 h 33 v -99"
         style="fill:#e9e8e7;fill-opacity:1;fill-rule:nonzero;stroke:none"
         id="path186" />
      <path
         d="m 22328.9,11733.8 -31.9,-8.5 -25.6,95.6 31.8,8.5 25.7,-95.6"
         style="fill:#e9e8e7;fill-opacity:1;fill-rule:nonzero;stroke:none"
         id="path188" />
      <path
         d="m 22187.4,11681.4 -28.6,-16.5 -49.5,85.7 28.6,16.5 49.5,-85.7"
         style="fill:#e9e8e7;fill-opacity:1;fill-rule:nonzero;stroke:none"
         id="path190" />
      <path
         d="m 22064.3,11594.2 -23.3,-23.3 -70.1,70 23.4,23.3 70,-70"
         style="fill:#e9e8e7;fill-opacity:1;fill-rule:nonzero;stroke:none"
         id="path192" />
      <path
         d="m 21968,11478.1 -16.5,-28.6 -85.8,49.5 16.5,28.6 85.8,-49.5"
         style="fill:#e9e8e7;fill-opacity:1;fill-rule:nonzero;stroke:none"
         id="path194" />
      <path
         d="m 21905,11341 -8.6,-31.9 -95.6,25.6 8.5,31.9 95.7,-25.6"
         style="fill:#e9e8e7;fill-opacity:1;fill-rule:nonzero;stroke:none"
         id="path196" />
      <path
         d="m 21879.6,11192.3 v -33 h -99 v 33 h 99"
         style="fill:#e9e8e7;fill-opacity:1;fill-rule:nonzero;stroke:none"
         id="path198" />
      <path
         d="m 21893.6,11042.1 8.5,-31.9 -95.6,-25.6 -8.6,31.8 95.7,25.7"
         style="fill:#e9e8e7;fill-opacity:1;fill-rule:nonzero;stroke:none"
         id="path200" />
      <path
         d="m 21946,10900.6 16.5,-28.6 -85.8,-49.5 -16.5,28.6 85.8,49.5"
         style="fill:#e9e8e7;fill-opacity:1;fill-rule:nonzero;stroke:none"
         id="path202" />
      <path
         d="m 22033.2,10777.5 23.3,-23.4 -70,-70 -23.3,23.4 70,70"
         style="fill:#e9e8e7;fill-opacity:1;fill-rule:nonzero;stroke:none"
         id="path204" />
      <path
         d="m 22149.3,10681.2 28.6,-16.5 -49.5,-85.8 -28.6,16.5 49.5,85.8"
         style="fill:#e9e8e7;fill-opacity:1;fill-rule:nonzero;stroke:none"
         id="path206" />
      <path
         d="m 22286.4,10618.2 31.8,-8.6 -25.6,-95.6 -31.9,8.5 25.7,95.7"
         style="fill:#e9e8e7;fill-opacity:1;fill-rule:nonzero;stroke:none"
         id="path208" />
      <path
         d="m 22435.1,10592.8 h 33 v -99 h -33 v 99"
         style="fill:#e9e8e7;fill-opacity:1;fill-rule:nonzero;stroke:none"
         id="path210" />
      <path
         d="m 22585.3,10606.8 31.9,8.5 25.6,-95.6 -31.9,-8.6 -25.6,95.7"
         style="fill:#e9e8e7;fill-opacity:1;fill-rule:nonzero;stroke:none"
         id="path212" />
      <path
         d="m 22726.8,10659.1 28.6,16.6 49.5,-85.8 -28.6,-16.5 -49.5,85.7"
         style="fill:#e9e8e7;fill-opacity:1;fill-rule:nonzero;stroke:none"
         id="path214" />
      <path
         d="m 22849.9,10746.4 23.3,23.3 70,-70 -23.3,-23.3 -70,70"
         style="fill:#e9e8e7;fill-opacity:1;fill-rule:nonzero;stroke:none"
         id="path216" />
      <path
         d="m 22946.2,10862.5 16.5,28.6 85.8,-49.5 -16.5,-28.6 -85.8,49.5"
         style="fill:#e9e8e7;fill-opacity:1;fill-rule:nonzero;stroke:none"
         id="path218" />
      <path
         d="m 23009.2,10999.6 8.6,31.8 95.6,-25.6 -8.6,-31.9 -95.6,25.7"
         style="fill:#e9e8e7;fill-opacity:1;fill-rule:nonzero;stroke:none"
         id="path220" />
      <path
         d="m 23034.6,11148.3 v 33 h 99 v -33 h -99"
         style="fill:#e9e8e7;fill-opacity:1;fill-rule:nonzero;stroke:none"
         id="path222" />
      <path
         d="m 23020.6,11298.5 -8.5,31.9 95.6,25.6 8.5,-31.9 -95.6,-25.6"
         style="fill:#e9e8e7;fill-opacity:1;fill-rule:nonzero;stroke:none"
         id="path224" />
      <path
         d="m 22968.2,11440 -16.5,28.6 85.8,49.5 16.5,-28.6 -85.8,-49.5"
         style="fill:#e9e8e7;fill-opacity:1;fill-rule:nonzero;stroke:none"
         id="path226" />
      <path
         d="m 22881,11563.1 -23.3,23.3 70,70 23.3,-23.3 -70,-70"
         style="fill:#e9e8e7;fill-opacity:1;fill-rule:nonzero;stroke:none"
         id="path228" />
      <path
         d="m 22764.9,11659.4 -28.6,16.5 49.5,85.7 28.6,-16.4 -49.5,-85.8"
         style="fill:#e9e8e7;fill-opacity:1;fill-rule:nonzero;stroke:none"
         id="path230" />
      <path
         d="m 22627.8,11722.4 -31.9,8.5 25.7,95.7 31.8,-8.6 -25.6,-95.6"
         style="fill:#e9e8e7;fill-opacity:1;fill-rule:nonzero;stroke:none"
         id="path232" />
      <path
         d="m 22387.2,11147.3 c -12.3,33.6 5.8,72.4 39.4,84.6 33.6,12.2 72.4,-5.8 84.6,-39.4 12.2,-33.7 -5.8,-72.4 -39.4,-84.6 -33.7,-12.3 -72.4,5.8 -84.6,39.4"
         style="fill:#474991;fill-opacity:1;fill-rule:nonzero;stroke:none"
         id="path234" />
      <path
         d="m 22209.4,11056.9 -18.3,50.1 721.7,236.3 3,-8.3 -706.4,-278.1"
         style="fill:#f14923;fill-opacity:1;fill-rule:nonzero;stroke:none"
         id="path236" />
      <path
         d="m 22418.2,11158.6 c -6.1,16.8 2.9,36.2 19.7,42.3 16.8,6.1 36.2,-2.9 42.3,-19.7 6.1,-16.8 -2.9,-36.2 -19.7,-42.3 -16.8,-6.1 -36.2,2.9 -42.3,19.7"
         style="fill:#ffffff;fill-opacity:1;fill-rule:nonzero;stroke:none"
         id="path238" />
    </g>
  </g>
</svg>
