<?xml version="1.0" encoding="UTF-8" standalone="no"?>
<svg
   xmlns:dc="http://purl.org/dc/elements/1.1/"
   xmlns:cc="http://creativecommons.org/ns#"
   xmlns:rdf="http://www.w3.org/1999/02/22-rdf-syntax-ns#"
   xmlns:svg="http://www.w3.org/2000/svg"
   xmlns="http://www.w3.org/2000/svg"
   viewBox="0 0 6666.6665 5066.6665"
   height="5066.6665"
   width="6666.6665"
   xml:space="preserve"
   id="svg2"
   version="1.1"><metadata
     id="metadata8"><rdf:RDF><cc:Work
         rdf:about=""><dc:format>image/svg+xml</dc:format><dc:type
           rdf:resource="http://purl.org/dc/dcmitype/StillImage" /></cc:Work></rdf:RDF></metadata><defs
     id="defs6"><clipPath
       id="clipPath28"
       clipPathUnits="userSpaceOnUse"><path
         id="path26"
         d="m 42862.7,25994 c -2390.8,1830.1 -4716.2,5578.6 -8303.6,6899.4 -3381.1,1244.8 -7182.9,-51.8 -10593.2,-717.7 -3335.5,-651.3 -7190,540.4 -10052.6,-640.2 C 10744,30228.3 9340.54,26933.2 7663.18,24036.8 5958.95,21094.1 4012.38,18822 4693.46,16100.2 5288.16,13723.6 8391.66,11821 9606.71,8758.3 9992.57,7785.7 11890.1,4740.7 15740,4033.4 c 2507.6,-460.7 5255.6,1451 7969.7,2278.1 3270.5,996.6 7449.8,-504.7 10649.7,378.7 3532.7,975.2 5364,3871.6 6857.7,7277.3 806.3,1838.5 4188.6,3555.9 4902.9,5952.9 718.2,2410 -928.9,4291.3 -3257.3,6073.6 z" /></clipPath></defs><g
     transform="matrix(1.3333333,0,0,-1.3333333,0,5066.6667)"
     id="g10"><g
       transform="scale(0.1)"
       id="g12"><g
         transform="scale(3.06748)"
         id="g14"><path
           id="path16"
           style="fill:#ffffff;fill-opacity:1;fill-rule:nonzero;stroke:none"
           d="M 16300,0 H 0 V 12388 H 16300 V 0" /></g><g
         transform="scale(2.87351)"
         id="g18"><path
           id="path20"
           style="fill:#cde9e1;fill-opacity:1;fill-rule:nonzero;stroke:none"
           d="m 14916.5,9046.08 c -832,636.89 -1641.3,1941.42 -2889.7,2401.02 -1176.7,433.2 -2499.7,-18 -3686.51,-249.8 -1160.77,-226.6 -2502.17,188.1 -3498.37,-222.7 C 3738.98,10519.7 3250.57,9372.93 2666.84,8364.96 2073.75,7340.89 1396.33,6550.18 1633.36,5602.97 1840.31,4775.9 2920.35,4113.79 3343.2,3047.95 c 134.28,-338.47 794.63,-1398.16 2134.42,-1644.3 872.66,-160.33 1828.99,504.96 2773.51,792.79 1138.16,346.83 2592.57,-175.64 3706.17,131.79 1229.4,339.38 1866.7,1347.35 2386.5,2532.55 280.6,639.81 1457.7,1237.48 1706.3,2071.65 249.9,838.7 -323.3,1493.4 -1133.6,2113.65" /></g><g
         id="g22"><g
           clip-path="url(#clipPath28)"
           id="g24"><g
             transform="scale(2.83988)"
             id="g30"><path
               id="path32"
               style="fill:#f5f5f5;fill-opacity:1;fill-rule:nonzero;stroke:none"
               d="M 17338.2,1008.74 C 13499,1432.6 9659.71,1856.45 5820.5,2280.31 c -107.89,12.01 -185.57,109.41 -174.24,217.54 274.88,2615.54 273.89,5252.77 -2.92,7868.15 3971.41,420.3 7942.86,840.6 11914.26,1260.9 365.1,-3450.7 366.4,-6930.22 3.8,-10381.14 -15,-142.97 -115.3,-249.026 -223.2,-237.02" /></g><g
             transform="scale(2.83988)"
             id="g34"><path
               id="path36"
               style="fill:#3777f6;fill-opacity:1;fill-rule:nonzero;stroke:none"
               d="m 17596,11246.3 c -3974.5,-389.6 -7949.07,-779.2 -11923.57,-1168.8 -11.06,112.6 -22.61,225.2 -34.65,337.7 -7.04,65.7 40.18,124.9 105.74,132.2 3890.31,429.5 7780.68,859 11670.98,1288.4 65.6,7.3 126.5,-57.1 135.8,-143.9 15.9,-148.5 31.1,-297 45.7,-445.6" /></g><g
             transform="scale(2.83988)"
             id="g38"><path
               id="path40"
               style="fill:#568cf6;fill-opacity:1;fill-rule:nonzero;stroke:none"
               d="M 17679,10308.2 C 13697.7,9994.26 9716.51,9680.35 5735.28,9366.46 c -18.7,237.16 -39.65,474.18 -62.85,711.04 3974.5,389.6 7949.07,779.2 11923.57,1168.8 30.6,-312.5 58.3,-625.2 83,-938.1" /></g><g
             transform="scale(1.70848)"
             id="g42"><path
               id="path44"
               style="fill:#fbf9f8;fill-opacity:1;fill-rule:nonzero;stroke:none"
               d="m 10323.2,16236.4 c -128.1,-11.3 -256.3,-22.6 -384.45,-34 -16.86,-1.4 -31.73,11.1 -33.25,28.1 v 0 c -1.52,17.1 10.95,32.1 27.81,33.6 128.09,11.4 256.29,22.9 384.39,34.4 16.8,1.5 31.7,-11.2 33.2,-28.4 v 0 c 1.5,-17 -10.9,-32.1 -27.7,-33.7" /></g><g
             transform="scale(1.69287)"
             id="g46"><path
               id="path48"
               style="fill:#fbf9f8;fill-opacity:1;fill-rule:nonzero;stroke:none"
               d="m 10431.5,16236 c -129.4,-11.2 -258.7,-22.3 -388,-33.5 -17,-1.4 -32,11.3 -33.5,28.5 v 0 c -1.5,17.1 11.1,32.3 28.1,33.7 129.3,11.3 258.7,22.6 388,33.8 17,1.5 32,-11.3 33.5,-28.6 v 0 c 1.5,-17.3 -11.1,-32.5 -28.1,-33.9" /></g><g
             transform="scale(1.67726)"
             id="g50"><path
               id="path52"
               style="fill:#fbf9f8;fill-opacity:1;fill-rule:nonzero;stroke:none"
               d="m 10541.5,16235.3 c -130.6,-10.9 -261.2,-21.8 -391.8,-32.7 -17.1,-1.5 -32.3,11.4 -33.7,28.7 v 0 c -1.5,17.4 11.3,32.6 28.4,34.1 130.6,11 261.2,22.1 391.7,33.1 17.2,1.5 32.3,-11.5 33.8,-29 v 0 c 1.5,-17.4 -11.3,-32.8 -28.4,-34.2" /></g><g
             transform="scale(1.81812)"
             id="g54"><path
               id="path56"
               style="fill:#ffffff;fill-opacity:1;fill-rule:nonzero;stroke:none"
               d="m 9519.84,16154.1 c 8.81,-84.5 -51.81,-159.9 -135.13,-168.3 -83.28,-8.4 -157.69,53 -166.44,137 -8.75,84 51.48,159.4 134.7,168.3 83.27,8.9 158.07,-52.4 166.87,-137" /></g><g
             transform="scale(1.82381)"
             id="g58"><path
               id="path60"
               style="fill:#ffffff;fill-opacity:1;fill-rule:nonzero;stroke:none"
               d="m 9967.91,16153.4 c 8.82,-85 -51.54,-160.7 -134.55,-169.1 -83.07,-8.3 -157.31,53.4 -166.09,137.8 -8.77,84.5 51.21,160.1 134.17,169 83.02,8.9 157.64,-52.8 166.47,-137.7" /></g><g
             transform="scale(1.82951)"
             id="g62"><path
               id="path64"
               style="fill:#ffffff;fill-opacity:1;fill-rule:nonzero;stroke:none"
               d="m 10413.2,16152.6 c 8.9,-85.4 -51.2,-161.4 -134,-169.8 -82.8,-8.3 -156.9,53.7 -165.7,138.6 -8.8,84.9 50.9,160.9 133.6,169.7 82.8,8.9 157.2,-53.1 166.1,-138.5" /></g><g
             transform="scale(1.72117)"
             id="g66"><path
               id="path68"
               style="fill:#fbf9f8;fill-opacity:1;fill-rule:nonzero;stroke:none"
               d="m 10997,15919.6 c 38.6,-16.9 77.1,-33.7 115.6,-50.6 13.7,-6 28,6.8 24.3,21.5 -10.6,41.7 -21.2,83.4 -31.9,125 -1.5,5.9 -0.1,12.1 3.8,16.7 27.2,32.5 54.4,65 81.6,97.6 9.6,11.5 2.2,29.6 -12.6,30.5 -41.7,2.5 -83.5,5.1 -125.2,7.6 -5.9,0.4 -11.2,3.7 -14.3,8.9 -21.9,36.7 -43.7,73.5 -65.5,110.2 -7.8,13 -26.7,11.3 -32,-2.9 -15,-40 -30,-80 -45,-119.9 -2.1,-5.7 -6.8,-9.9 -12.6,-11.2 -40.6,-9.8 -81.3,-19.6 -121.9,-29.3 -14.4,-3.5 -18.7,-22.4 -7.2,-32 32.4,-27.2 64.9,-54.4 97.2,-81.6 4.6,-3.9 7,-9.7 6.5,-15.8 -3.4,-42.6 -6.9,-85.3 -10.4,-128 -1.2,-15.1 15,-25.2 27.5,-17.1 35.2,23 70.4,46 105.5,69 5,3.2 11.2,3.7 16.6,1.4" /></g><g
             transform="scale(1.78654)"
             id="g70"><path
               id="path72"
               style="fill:#ffffff;fill-opacity:1;fill-rule:nonzero;stroke:none"
               d="m 14781.4,16286.9 c -1042.3,-97.4 -2084.6,-194.9 -3126.9,-292.3 -139.2,-13.1 -241,-141.3 -228.1,-286.5 21.5,-241.1 41.6,-482.4 60.2,-723.7 1212.1,93.7 2424.2,187.5 3636.3,281.3 -19.9,255.5 -41.1,511 -63.9,766.3 -13.7,153.9 -138.3,268 -277.6,254.9" /></g><g
             transform="scale(2.62263)"
             id="g74"><path
               id="path76"
               style="fill:#ffffff;fill-opacity:1;fill-rule:nonzero;stroke:none"
               d="m 16185.5,7859.07 c -2720.4,-49 -5440.9,-98.03 -8161.33,-147.03 -63.87,-1.14 -116.56,51.78 -117.93,118.2 -10.91,522.38 -31.54,1044.64 -61.85,1566.49 -3.85,66.31 44.54,123.23 108.29,127.16 2715.82,165.52 5431.72,331.04 8147.52,496.61 63.8,3.9 119.4,-57.43 124,-137.05 36.3,-625.63 61,-1251.76 74.1,-1878.07 1.7,-79.7 -48.9,-145.17 -112.8,-146.31" /></g><g
             transform="scale(2.62447)"
             id="g78"><path
               id="path80"
               style="fill:#ffffff;fill-opacity:1;fill-rule:nonzero;stroke:none"
               d="m 16149.8,5135.32 c -2717.2,97.54 -5434.4,195.08 -8151.62,292.63 -63.79,2.32 -113.51,57.99 -111.34,124.29 17.26,521.93 24.81,1044.06 22.64,1566.18 -0.27,66.38 51.05,120.56 114.87,121.02 2718.95,18.93 5437.85,37.91 8156.75,56.85 63.8,0.45 116,-63.71 116.3,-143.35 2.6,-625.95 -6.4,-1251.98 -27.1,-1877.71 -2.7,-79.6 -56.7,-142.24 -120.5,-139.91" /></g><g
             transform="scale(2.61468)"
             id="g82"><path
               id="path84"
               style="fill:#ffffff;fill-opacity:1;fill-rule:nonzero;stroke:none"
               d="m 16038.9,2430.09 c -2718.2,244.77 -5436.3,489.54 -8154.5,734.31 -63.79,5.78 -110.64,64.29 -104.83,130.73 45.55,522.58 81.35,1045.82 107.43,1569.4 3.33,66.55 57.72,118.1 121.7,115.12 2726.1,-128.04 5452.3,-256.09 8178.5,-384.14 63.9,-2.98 112.8,-70.1 108.8,-150 -31.3,-627.72 -74.2,-1255.02 -128.8,-1881.56 -7,-79.71 -64.5,-139.64 -128.3,-133.86" /></g><g
             transform="scale(1.96712)"
             id="g86"><path
               id="path88"
               style="fill:#949494;fill-opacity:1;fill-rule:nonzero;stroke:none"
               d="m 16300,11355 c -1102.1,-37.1 -2204.1,-74.3 -3306.2,-111.4 -1.9,56.6 -3.9,113.1 -5.9,169.6 1101.9,40.3 2203.8,80.7 3305.8,121 2.2,-59.7 4.3,-119.5 6.3,-179.2" /></g><g
             transform="scale(2.30166)"
             id="g90"><path
               id="path92"
               style="fill:#949494;fill-opacity:1;fill-rule:nonzero;stroke:none"
               d="m 16300,9784.47 c -647.8,-21.81 -1295.7,-43.66 -1943.6,-65.47 -1.7,51.44 -3.5,102.88 -5.4,154.32 647.8,23.73 1295.6,47.41 1943.4,71.13 2,-53.31 3.8,-106.67 5.6,-159.98" /></g><g
             transform="scale(2.55874)"
             id="g94"><path
               id="path96"
               style="fill:#949494;fill-opacity:1;fill-rule:nonzero;stroke:none"
               d="m 16300,8856.58 c -495.8,-16.69 -991.5,-33.42 -1487.3,-50.1 -1.6,48.11 -3.3,96.21 -5,144.32 495.7,18.14 991.4,36.27 1487.1,54.41 1.8,-49.56 3.6,-99.08 5.2,-148.63" /></g><g
             transform="scale(1.83991)"
             id="g98"><path
               id="path100"
               style="fill:#949494;fill-opacity:1;fill-rule:nonzero;stroke:none"
               d="m 16300,11636.6 c -798.1,-21.2 -1596.2,-42.4 -2394.2,-63.6 -1.7,60.4 -3.4,120.9 -5.2,181.3 798.1,23.5 1596.1,47.1 2394.1,70.5 1.9,-62.7 3.7,-125.5 5.3,-188.2" /></g><g
             transform="scale(2.23812)"
             id="g102"><path
               id="path104"
               style="fill:#949494;fill-opacity:1;fill-rule:nonzero;stroke:none"
               d="m 16300,9643.13 c -810.7,-21.5 -1621.4,-43.03 -2432.1,-64.57 -1.4,52.06 -2.8,104.11 -4.4,156.12 810.7,23.9 1621.3,47.76 2431.9,71.62 1.6,-54.38 3.2,-108.75 4.6,-163.17" /></g><g
             transform="scale(2.48012)"
             id="g106"><path
               id="path108"
               style="fill:#949494;fill-opacity:1;fill-rule:nonzero;stroke:none"
               d="m 16300,8744.45 c -478.4,-12.7 -956.8,-25.41 -1435.2,-38.11 -1.3,49.24 -2.7,98.47 -4.2,147.66 478.4,14.11 956.8,28.18 1435.2,42.25 1.5,-50.6 2.9,-101.2 4.2,-151.8" /></g><g
             transform="scale(2.3462)"
             id="g110"><path
               id="path112"
               style="fill:#3777f6;fill-opacity:1;fill-rule:nonzero;stroke:none"
               d="m 16300,10241.5 c -1809.4,-81.9 -3618.7,-163.8 -5428.1,-245.75 -4.7,105.95 -9.9,211.85 -15.3,317.75 1808.7,93.6 3617.5,187.2 5426.3,280.8 6.1,-117.6 11.8,-235.2 17.1,-352.8" /></g><g
             transform="scale(1.86963)"
             id="g114"><path
               id="path116"
               style="fill:#949494;fill-opacity:1;fill-rule:nonzero;stroke:none"
               d="m 16296.6,8485.6 c -867,17.01 -1734,34.02 -2601.1,51.03 1.2,59.47 2.3,119.01 3.3,178.48 867.1,-14.49 1734.1,-28.99 2601.2,-43.48 -1,-62.05 -2.1,-124.04 -3.4,-186.03" /></g><g
             transform="scale(2.36141)"
             id="g118"><path
               id="path120"
               style="fill:#949494;fill-opacity:1;fill-rule:nonzero;stroke:none"
               d="m 16297.1,6651.8 c -1016.3,19.95 -2032.6,39.89 -3048.9,59.84 1,49.42 1.9,98.84 2.7,148.26 1016.4,-16.98 2032.7,-34.01 3049.1,-50.99 -0.9,-52.38 -1.9,-104.72 -2.9,-157.11" /></g><g
             transform="scale(1.68842)"
             id="g122"><path
               id="path124"
               style="fill:#949494;fill-opacity:1;fill-rule:nonzero;stroke:none"
               d="m 16294.9,8933.93 c -380.2,10.18 -760.5,20.37 -1140.8,30.56 1.7,65.86 3.4,131.78 5,197.64 380.3,-9.06 760.6,-18.18 1140.9,-27.24 -1.6,-66.99 -3.3,-133.97 -5.1,-200.96" /></g><g
             transform="scale(2.09176)"
             id="g126"><path
               id="path128"
               style="fill:#949494;fill-opacity:1;fill-rule:nonzero;stroke:none"
               d="m 16295.6,7127.15 c -888.1,23.76 -1776.1,47.52 -2664.2,71.28 1.4,54.55 2.8,109.1 4.1,163.6 888.2,-21.18 1776.4,-42.41 2664.5,-63.58 -1.4,-57.09 -2.8,-114.22 -4.4,-171.3" /></g><g
             transform="scale(2.4567)"
             id="g130"><path
               id="path132"
               style="fill:#949494;fill-opacity:1;fill-rule:nonzero;stroke:none"
               d="m 16296.1,6003.62 c -752.4,20.15 -1504.8,40.3 -2257.1,60.41 1.3,48.77 2.5,97.57 3.7,146.34 752.4,-18 1504.9,-35.95 2257.3,-53.9 -1.2,-50.96 -2.5,-101.88 -3.9,-152.85" /></g><g
             transform="scale(2.31577)"
             id="g134"><path
               id="path136"
               style="fill:#3777f6;fill-opacity:1;fill-rule:nonzero;stroke:none"
               d="m 16298.3,7426.33 c -1744.5,14.04 -3488.9,28.11 -5233.3,42.19 0.9,107.4 1.4,214.79 1.5,322.18 1744.5,-2.8 3489,-5.61 5233.5,-8.37 -0.2,-118.67 -0.8,-237.33 -1.7,-356" /></g><g
             transform="scale(1.50249)"
             id="g138"><path
               id="path140"
               style="fill:#3777f6;fill-opacity:1;fill-rule:nonzero;stroke:none"
               d="m 16300,14139.9 c -595.6,-15.7 -1191.3,-31.4 -1787,-47.2 -16.5,625.9 -40.9,1251.7 -73.2,1877.1 595,30.8 1190.1,61.6 1785.2,92.3 33.1,-640.4 58.1,-1281.2 75,-1922.2" /></g><g
             transform="scale(2.13098)"
             id="g142"><path
               id="path144"
               style="fill:#949494;fill-opacity:1;fill-rule:nonzero;stroke:none"
               d="m 16287.8,4249.09 c -1469.6,108.16 -2939.1,216.33 -4408.6,324.5 3.9,52.09 7.6,104.22 11.3,156.31 1469.8,-103.89 2939.7,-207.79 4409.5,-311.74 -4,-56.35 -8.1,-112.71 -12.2,-169.07" /></g><g
             transform="scale(2.25322)"
             id="g146"><path
               id="path148"
               style="fill:#949494;fill-opacity:1;fill-rule:nonzero;stroke:none"
               d="m 16288.3,3953.5 c -205.6,15.13 -411.2,30.26 -616.9,45.4 3.9,53.57 7.8,107.13 11.6,160.66 205.7,-14.52 411.3,-29.07 617,-43.59 -3.8,-54.18 -7.7,-108.33 -11.7,-162.47" /></g><g
             transform="scale(2.53228)"
             id="g150"><path
               id="path152"
               style="fill:#949494;fill-opacity:1;fill-rule:nonzero;stroke:none"
               d="m 16289.2,3385.64 c -547.9,40.32 -1095.9,80.64 -1643.9,121 3.6,48.3 7.1,96.63 10.5,144.97 548.1,-38.74 1096.2,-77.48 1644.2,-116.22 -3.5,-49.92 -7.1,-99.83 -10.8,-149.75" /></g><g
             transform="scale(1.73451)"
             id="g154"><path
               id="path156"
               style="fill:#949494;fill-opacity:1;fill-rule:nonzero;stroke:none"
               d="m 16284.4,5005.1 c -575.5,46.53 -1151,93 -1726.5,139.53 5.2,63.99 10.3,127.99 15.2,191.98 575.6,-44.85 1151.3,-89.65 1726.9,-134.5 -5.1,-65.67 -10.3,-131.34 -15.6,-197.01" /></g><g
             transform="scale(1.90592)"
             id="g158"><path
               id="path160"
               style="fill:#949494;fill-opacity:1;fill-rule:nonzero;stroke:none"
               d="m 16285.5,4436.6 c -328.7,26.54 -657.5,53.09 -986.2,79.64 4.8,60.24 9.6,120.42 14.3,180.65 328.8,-25.6 657.6,-51.21 986.4,-76.81 -4.7,-61.18 -9.6,-122.36 -14.5,-183.48" /></g><g
             transform="scale(2.4477)"
             id="g162"><path
               id="path164"
               style="fill:#949494;fill-opacity:1;fill-rule:nonzero;stroke:none"
               d="m 16287.8,3163.17 c -1149.9,92.91 -2299.8,185.81 -3449.8,278.71 3.9,47.76 7.7,95.56 11.4,143.32 1150.2,-89.55 2300.4,-179.14 3450.6,-268.7 -4,-51.11 -8,-102.22 -12.2,-153.33" /></g><g
             transform="scale(2.43139)"
             id="g166"><path
               id="path168"
               style="fill:#3777f6;fill-opacity:1;fill-rule:nonzero;stroke:none"
               d="m 16279.8,4195.21 c -1943.7,120.51 -3887.5,240.97 -5831.2,361.44 6.3,102.16 12.3,204.33 18,306.49 1944.5,-107.92 3889,-215.85 5833.4,-323.77 -6.3,-114.75 -13.1,-229.45 -20.2,-344.16" /></g><g
             transform="scale(1.44352)"
             id="g170"><path
               id="path172"
               style="fill:#ffffff;fill-opacity:1;fill-rule:nonzero;stroke:none"
               d="m 15911.8,16018.1 c -68.2,-3 -136.4,-5.9 -204.5,-8.9 -2,44.6 -4,89.1 -6,133.7 65.8,7.7 119.9,25.3 162.5,52.6 42.6,27.4 72.6,60.2 90.2,98.6 42.1,2 84.1,4 126.1,5.9 19.9,-423.5 36.3,-847.2 49.3,-1270.9 -60.3,-1.8 -120.5,-3.6 -180.8,-5.5 -10.1,331.6 -22.4,663 -36.8,994.5" /></g><g
             transform="scale(1.50493)"
             id="g174"><path
               id="path176"
               style="fill:#3777f6;fill-opacity:1;fill-rule:nonzero;stroke:none"
               d="m 16272.3,10055.9 c -594.7,16.1 -1189.4,32.2 -1784.1,48.2 17,624.9 25.9,1250 27.1,1875 594.9,-1 1189.8,-2.1 1784.7,-3.2 -1.1,-640 -10.4,-1280.1 -27.7,-1920" /></g><g
             transform="scale(1.44785)"
             id="g178"><path
               id="path180"
               style="fill:#ffffff;fill-opacity:1;fill-rule:nonzero;stroke:none"
               d="m 15929.7,10991.6 c 119,-2.4 238,-4.8 357.1,-7.3 -1.2,-60.5 -2.5,-121 -3.9,-181.5 -190.5,4.4 -380.9,8.7 -571.4,13.1 1.2,55.2 2.5,110.5 3.6,165.7 90.9,146.6 181.4,293.6 271.5,441.2 50,81.2 84.3,147.4 103.1,198.5 18.8,51.1 28.4,101.4 28.9,150.9 0.5,44.7 -8.5,78.9 -27,102.6 -18.5,23.7 -45.4,35.7 -80.5,36 -35.2,0.3 -62.2,-11.2 -81.1,-34.5 -18.9,-23.3 -28.6,-57.3 -29.1,-101.8 -0.3,-24.7 -0.5,-49.4 -0.8,-74.1 -57.8,0.7 -115.6,1.4 -173.5,2 0.3,19.8 0.5,39.7 0.7,59.5 1.1,103.3 27,184.1 77.9,242.7 50.8,58.6 120.5,87.6 209,87.1 89.5,-0.6 159.7,-28.8 210.3,-84.8 50.6,-56 75.5,-133.1 74.5,-231.1 -0.7,-69 -13.2,-136.4 -37.2,-202 -24.1,-65.6 -67,-149.4 -128.7,-251.1 -67.6,-110.6 -135.4,-221 -203.4,-331.1" /></g><g
             transform="scale(1.49414)"
             id="g182"><path
               id="path184"
               style="fill:#3777f6;fill-opacity:1;fill-rule:nonzero;stroke:none"
               d="m 16168.4,6022.39 c -597.3,48.32 -1194.6,96.64 -1791.8,144.97 50.8,628.05 93.7,1256.57 128.5,1885.36 598.4,-33.2 1196.6,-66.39 1794.9,-99.66 -35.7,-643.91 -79.6,-1287.56 -131.6,-1930.67" /></g><g
             transform="scale(1.43341)"
             id="g186"><path
               id="path188"
               style="fill:#ffffff;fill-opacity:1;fill-rule:nonzero;stroke:none"
               d="m 16266.7,7080.87 c -2.8,-39.62 -5.7,-79.32 -8.6,-118.94 -7.1,-97.61 -38.5,-172.6 -94.2,-224.71 -55.7,-52.19 -128.7,-74.72 -218.9,-67.74 -90.2,6.9 -158.8,40.25 -206,99.9 -47.2,59.65 -67.2,137.85 -60.1,234.75 0.9,12.7 1.9,25.4 2.8,38.16 58.7,1.82 117.4,3.7 176.1,5.52 -1,-13.96 -2.1,-27.91 -3,-41.86 -7.1,-97.11 26.3,-148.39 100.6,-153.97 35.4,-2.58 63.7,6.28 84.7,26.72 21,20.51 33.1,51.41 36.1,92.78 3.3,44.44 6.5,88.88 9.6,133.32 3.7,51.14 -4.6,89.02 -24.7,113.65 -20.1,24.62 -54.2,38.65 -102.2,41.92 -24,1.68 -48,3.35 -72,5.03 4.3,60.69 8.4,121.39 12.4,182.15 20.1,-1.33 40.1,-2.72 60,-4.05 48.1,-3.21 83.7,6 107,27.7 23.2,21.63 36.5,58.11 39.9,109.25 2.1,32.86 4.3,65.72 6.3,98.57 2.4,37.75 -4.6,66.98 -21.1,87.56 -16.5,20.58 -41.4,31.88 -74.5,33.97 -68.6,4.26 -105.6,-37.95 -111.3,-126.55 -0.6,-9.76 -1.2,-19.46 -1.9,-29.16 -58.3,3.77 -116.5,7.54 -174.9,11.23 1,14.58 1.9,29.09 2.8,43.67 5.9,92.02 35.3,163.53 88.4,214.46 53,50.93 123.4,73.81 211.5,68.58 88,-5.31 155.3,-36.56 201.7,-93.83 46.5,-57.35 66.8,-132.42 60.9,-225.2 -1.8,-28.05 -3.7,-56.09 -5.5,-84.21 -3.7,-57.34 -17.8,-106.04 -42.3,-146.08 -24.5,-39.98 -58.7,-70.18 -102.6,-90.42 90.6,-52.67 131.7,-140.15 123,-262.17" /></g><g
             transform="scale(1.72392)"
             id="g190"><path
               id="path192"
               style="fill:#568cf6;fill-opacity:1;fill-rule:nonzero;stroke:none"
               d="m 13046.7,16017.5 c -10.3,5 -18.5,12.5 -24.8,22.4 -6.2,9.9 -9.9,21.5 -11,34.7 -0.3,3.3 -0.6,6.7 -0.8,10 12.5,2.5 25.2,5.1 37.8,7.6 0.3,-3.4 0.6,-6.9 0.9,-10.4 0.9,-10.1 3.8,-17.8 8.8,-23.3 5,-5.4 11.5,-7.8 19.5,-7.2 7.7,0.7 13.8,3.6 18,8.8 4.2,5.1 6,11.9 5.3,20.1 -0.8,9 -4,17.5 -9.5,25.3 -5.6,7.8 -16.3,18.4 -32.1,31.8 -21.1,18 -35.9,33.2 -44.1,45.6 -8.2,12.4 -13.1,26.3 -14.4,41.6 -1.8,21 2.1,38.2 11.8,51.4 9.7,13.3 23.9,20.8 42.7,22.5 18.7,1.6 34,-3.3 45.9,-14.9 11.8,-11.6 18.6,-27.8 20.5,-48.9 0.2,-2.4 0.4,-4.7 0.6,-7.1 -12.6,-2.6 -25.3,-5.2 -37.9,-7.7 -0.2,2.6 -0.5,5.3 -0.7,7.9 -0.9,10.7 -3.5,18.6 -7.7,23.9 -4.2,5.2 -9.9,7.5 -16.9,6.9 -7,-0.6 -12.2,-3.3 -15.5,-8.1 -3.4,-4.9 -4.7,-11.7 -3.9,-20.5 0.7,-8.7 4,-17 9.7,-24.6 5.6,-7.7 16.3,-18.5 31.9,-32.4 21.3,-19.1 36,-34.6 44.2,-46.6 8.2,-12 13,-25.7 14.2,-40.8 1.2,-13.3 -0.5,-25.4 -5,-36.2 -4.5,-10.9 -11.4,-19.6 -20.7,-26.2 -9.3,-6.7 -20.1,-10.6 -32.7,-11.6 -12.5,-1.1 -23.9,1 -34.1,6" /></g><g
             transform="scale(1.7253)"
             id="g194"><path
               id="path196"
               style="fill:#568cf6;fill-opacity:1;fill-rule:nonzero;stroke:none"
               d="m 13144.1,16290.1 c 37.6,3.3 75.2,6.6 112.8,9.9 1.2,-13.3 2.3,-26.6 3.5,-40 -24.3,-2.1 -48.8,-4.2 -73.1,-6.3 2.3,-26 4.5,-51.9 6.7,-77.9 19.4,1.7 38.8,3.4 58.2,5.1 1.1,-13.4 2.2,-26.7 3.4,-40 -19.4,-1.6 -38.8,-3.3 -58.2,-4.9 2.4,-27.3 4.7,-54.6 6.9,-81.9 24.4,2 48.8,4.1 73.2,6.2 1.2,-13.4 2.3,-26.7 3.4,-40 -37.7,-3.2 -75.3,-6.3 -113,-9.4 -7.7,93.1 -15.7,186.1 -23.8,279.2" /></g><g
             transform="scale(1.72642)"
             id="g198"><path
               id="path200"
               style="fill:#568cf6;fill-opacity:1;fill-rule:nonzero;stroke:none"
               d="m 13373.7,16121.9 c -8.6,38.6 -17.3,77.2 -26.1,115.8 -2,-39.6 -4,-79.1 -6.1,-118.6 10.7,1 21.5,1.8 32.2,2.8 z m 8.8,-40.4 c -14.3,-1.2 -28.5,-2.4 -42.8,-3.6 -1.1,-20.9 -2.2,-41.8 -3.4,-62.7 -13.2,-1.1 -26.5,-2.2 -39.7,-3.3 6.7,94.4 13.2,188.9 19.5,283.4 17.7,1.6 35.5,3.1 53.2,4.7 22.7,-92.1 45.2,-184.2 67.5,-276.4 -13.5,-1.1 -27,-2.2 -40.5,-3.4 -4.6,20.4 -9.2,40.9 -13.8,61.3" /></g><g
             transform="scale(1.72786)"
             id="g202"><path
               id="path204"
               style="fill:#568cf6;fill-opacity:1;fill-rule:nonzero;stroke:none"
               d="m 13482.8,16171.9 c 6.9,0.5 13.7,1.1 20.6,1.7 7.7,0.7 13.5,3.5 17.4,8.4 3.8,4.9 5.4,11.5 4.7,19.7 -0.9,10.9 -1.9,21.7 -2.8,32.5 -0.7,8.3 -3.4,14.5 -8,18.7 -4.7,4.2 -10.9,5.9 -18.6,5.2 -6.9,-0.6 -13.7,-1.2 -20.6,-1.8 2.4,-28.1 4.8,-56.3 7.3,-84.4 z m 62.6,-151.7 c -12.8,37.8 -25.7,75.6 -38.6,113.4 -6.8,-0.6 -13.7,-1.2 -20.6,-1.8 3.3,-38.6 6.5,-77.1 9.8,-115.7 -13.3,-1.1 -26.5,-2.2 -39.7,-3.3 -7.8,93.4 -15.8,186.7 -24,280.1 20.7,1.8 41.4,3.6 62.2,5.4 18.9,1.7 34.6,-3.1 46.8,-14.2 12.4,-11.2 19.4,-26.9 21.2,-47.3 0.8,-10.2 1.7,-20.5 2.6,-30.8 1.1,-12.8 -0.3,-24.4 -4.2,-34.7 -3.9,-10.3 -10,-18.6 -18.2,-25 14.7,-40.9 29.3,-81.7 43.9,-122.6 -13.7,-1.2 -27.4,-2.4 -41.2,-3.5" /></g><g
             transform="scale(1.72977)"
             id="g206"><path
               id="path208"
               style="fill:#568cf6;fill-opacity:1;fill-rule:nonzero;stroke:none"
               d="m 13616.8,16024.3 c -12.4,11.3 -19.6,26.9 -21.2,46.6 -4.4,51.9 -8.8,103.7 -13.3,155.5 -1.8,19.8 2.6,36.3 13,49.6 10.4,13.3 24.8,20.8 43.3,22.4 18.4,1.6 33.9,-3.2 46.5,-14.5 12.5,-11.3 19.6,-26.9 21.4,-46.7 0.9,-11 1.9,-22 2.8,-32.9 -13,-1.1 -25.9,-2.3 -38.9,-3.4 -0.9,11 -1.9,22 -2.9,32.9 -0.6,8 -3.3,14.3 -8,18.7 -4.6,4.5 -10.3,6.4 -17,5.8 -6.8,-0.6 -12.1,-3.5 -15.9,-8.6 -3.8,-5.2 -5.4,-11.8 -4.7,-19.8 4.5,-51.9 9,-103.8 13.3,-155.6 0.7,-8 3.4,-14.2 8,-18.7 4.7,-4.4 10.4,-6.4 17.1,-5.8 6.7,0.5 12,3.4 15.9,8.5 3.8,5.2 5.3,11.8 4.7,19.9 -1.2,13.3 -2.3,26.7 -3.4,40.1 12.9,1.1 25.9,2.2 38.9,3.3 1.2,-13.4 2.2,-26.8 3.4,-40.2 1.7,-19.8 -2.7,-36.3 -13.2,-49.6 -10.4,-13.3 -24.9,-20.6 -43.3,-22.2 -18.5,-1.5 -34,3.3 -46.5,14.7" /></g><g
             transform="scale(1.73127)"
             id="g210"><path
               id="path212"
               style="fill:#568cf6;fill-opacity:1;fill-rule:nonzero;stroke:none"
               d="m 13749.4,16008 c -7.8,93.6 -15.8,187.3 -24,280.9 13.2,1.2 26.4,2.3 39.6,3.5 3.5,-39.5 6.9,-79 10.3,-118.5 15.7,1.4 31.4,2.7 47.1,4.1 -3.4,39.5 -6.8,79 -10.3,118.5 13.2,1.2 26.4,2.3 39.6,3.5 8.2,-93.8 16.3,-187.6 24.1,-281.5 -13.2,-1.1 -26.4,-2.2 -39.6,-3.3 -3.4,40.9 -6.9,81.8 -10.4,122.6 -15.7,-1.3 -31.4,-2.7 -47.1,-4 3.5,-40.8 6.9,-81.7 10.3,-122.5 -13.1,-1.1 -26.3,-2.2 -39.6,-3.3" /></g><g
             transform="scale(1.73697)"
             id="g214"><path
               id="path216"
               style="fill:#568cf6;fill-opacity:1;fill-rule:nonzero;stroke:none"
               d="m 12546.2,15715 c -124.8,-10.1 -249.6,-20.2 -374.4,-30.4 -48.7,-3.9 -91.5,34.2 -95.7,85.2 -10.8,130.6 -22,261.2 -33.6,391.8 -4.5,51 31.2,95.8 79.8,100.2 124.7,11.3 249.4,22.5 374.1,33.8 48.7,4.4 91.9,-33.7 96.5,-85.1 11.7,-131.7 23,-263.5 33.9,-395.2 4.2,-51.5 -31.9,-96.3 -80.6,-100.3" /></g><g
             transform="scale(1.7224)"
             id="g218"><path
               id="path220"
               style="fill:#ffffff;fill-opacity:1;fill-rule:nonzero;stroke:none"
               d="m 12403.7,16072 c -20.5,-1.8 -41.8,4.5 -59.1,19.2 -35.9,30.3 -41.8,85.1 -13.3,122.5 14.7,19.3 35.7,30.2 57.5,32.1 20.5,1.8 41.8,-4.4 59.2,-19.1 35.9,-30.3 41.8,-85.3 13.3,-122.8 -14.8,-19.2 -35.8,-30.1 -57.6,-31.9 z m 220.1,-55.3 c -0.2,0.1 -0.4,0.3 -0.5,0.4 -35.9,25.3 -71.8,50.6 -107.7,75.8 -0.7,0.5 -1.3,0.9 -2,1.3 4.1,8.3 7.4,17 9.8,26.1 4.6,17.3 6,35.2 4,53.1 -1.9,17.9 -7,35 -15.2,50.8 -8.5,16.4 -19.9,30.7 -33.8,42.5 -26.7,22.6 -60.2,33.3 -94.2,30.3 -17.5,-1.6 -34.3,-6.7 -49.8,-15.2 -16.1,-8.8 -30,-20.9 -41.4,-35.8 -11.1,-14.5 -19.1,-31 -23.8,-48.8 -4.6,-17.2 -6,-34.9 -4,-52.8 1.9,-17.8 7,-34.8 15.2,-50.6 8.4,-16.4 19.7,-30.7 33.6,-42.4 26.7,-22.6 60.1,-33.5 94.1,-30.6 17.5,1.4 34.3,6.5 49.9,15 7.9,4.3 15.2,9.4 22.1,15.2 0.7,-0.9 1.5,-1.7 2.3,-2.5 32,-30 64,-60.1 95.9,-90.1 0.2,-0.2 0.4,-0.3 0.6,-0.5 6.8,-5.5 15.1,-7.8 23.2,-7.1 9.4,0.8 18.7,5.5 25.5,13.9 6.6,8 9.7,18.5 8.7,28.6 -1,9.4 -5.4,17.7 -12.5,23.4" /></g><g
             transform="scale(1.11904)"
             id="g222"><path
               id="path224"
               style="fill:#ffb29d;fill-opacity:1;fill-rule:nonzero;stroke:none"
               d="m 14084.3,11343.3 c 40.9,333.3 171.5,192.4 205,515.6 21.6,209.3 16.5,304.5 -71.4,496.5 -367.8,804.3 -752.9,1657.7 -1106.7,2456.6 -81.2,183.1 -80.7,125.9 -127.8,309.8 -88.1,343.3 -224.5,740.3 -311.3,1091.9 -11.6,46.4 -22.2,86.3 67.5,71.8 191.4,-30.9 345.6,-393.3 409.4,-590.1 6.2,-18.9 60.2,-92.8 115,-116.3 282.8,-121 500.7,-144.8 525.8,-538.8 2.3,-36.2 -64.5,1 27.5,-110.1 1089.3,-1314.1 2452.3,-3187.2 1998,-3906.1 252.3,399.2 -961.5,281 -1731,319.2" /></g><g
             transform="scale(1.0918)"
             id="g226"><path
               id="path228"
               style="fill:#ffb29d;fill-opacity:1;fill-rule:nonzero;stroke:none"
               d="m 14978.4,12821.1 1298.8,-1399.7 c 0,0 22.8,-421 -1878.5,-136.6 -1319.4,197.4 -1289,1313.8 -1289,1313.8 l 1868.7,222.5" /></g><g
             transform="scale(1.27436)"
             id="g230"><path
               id="path232"
               style="fill:#ffb29d;fill-opacity:1;fill-rule:nonzero;stroke:none"
               d="m 11018.7,14026.9 c -54.6,-179.1 -215.8,-357.9 -665.2,-456.9 l -135.8,-1101.4 -1717.25,395.9 742.1,3435.5 c 0,0 1111.95,-578.3 1464.25,-1157.3 39.1,-64.2 44.8,-143.9 14.3,-212.6 -16.1,-36.1 -40.6,-77 -78,-118.5 l 155.5,-208.9 c 95.3,-128.2 266.7,-423 220.1,-575.8" /></g><g
             transform="scale(1.23377)"
             id="g234"><path
               id="path236"
               style="fill:#003c63;fill-opacity:1;fill-rule:nonzero;stroke:none"
               d="m 10549.2,16225.9 c -6.1,0 -11.3,-1.4 -15.2,-4 -15.7,-10.7 -17.9,-46.6 -5.8,-93.6 14.2,-55.6 46,-121.2 89.3,-184.9 43.3,-63.7 92.9,-117.2 139.3,-150.9 39.3,-28.4 73.5,-39.4 89.2,-28.8 15.7,10.7 17.9,46.5 5.8,93.6 -14.3,55.5 -46,121.2 -89.3,184.8 v 0 c -84.1,123.5 -171.9,183.8 -213.3,183.8 z m 281.5,-505 c -23.2,0 -54.7,9.9 -96.6,40.3 -50,36.3 -102.8,93.2 -148.6,160.4 -45.7,67.3 -79.5,137.3 -94.8,197.1 -21.8,84.8 -0.3,120.3 21.5,135.1 67.8,46.2 196.1,-63.3 282.2,-189.9 45.8,-67.3 79.5,-137.2 94.9,-197 21.8,-84.7 0.3,-120.3 -21.5,-135.2 -8.9,-6 -21.1,-10.8 -37.1,-10.8" /></g><g
             transform="scale(1.20817)"
             id="g238"><path
               id="path240"
               style="fill:#003c63;fill-opacity:1;fill-rule:nonzero;stroke:none"
               d="m 9765.96,15638.6 -38.32,69 1066.26,592.4 38.3,-69 -1066.24,-592.4" /></g><path
             id="path242"
             style="fill:#c97700;fill-opacity:1;fill-rule:nonzero;stroke:none"
             d="m 10035.5,7805.9 c 0,0 -657.94,-935.4 -344.26,-2256.6 636.56,-2681.2 -3.74,-11992.6 -137.35,-13817.6 -12.36,-168.7 120.59,-312.7 289.81,-313.9 l 1240,-9 c 145.8,-1 270.1,105.3 291.6,249.5 L 13755.1,7619 10035.5,7805.9" /><path
             id="path244"
             style="fill:#f09200;fill-opacity:1;fill-rule:nonzero;stroke:none"
             d="m 10178.1,7793.3 c 0,0 -198.34,-1527.3 969.5,-2923.5 221.9,-265.3 363.4,-588.6 414,-930.7 344.7,-2330.6 2058,-10661.6 2507.5,-12300.6 19.8,-72.4 85.2,-122.6 160.2,-123.4 l 1217.9,-11.6 c 97.4,-1 175.2,81 169.1,178.3 -66.8,1064 -396.5,6547.5 -225.2,8475.001 191.8,2157.599 23.8,7573.999 23.8,7573.999 l -5236.8,62.5" /><g
             transform="scale(1.06625)"
             id="g246"><path
               id="path248"
               style="fill:#0084f0;fill-opacity:1;fill-rule:nonzero;stroke:none"
               d="m 9400.56,6701.27 4925.34,367.46 c 296.3,22.04 511,291.77 466.2,585.51 l -1376.4,5762.96 c 0,0 689.3,1863.7 -1067.4,2041.5 0,0 -1976.3,-774.4 -1925.5,841.3 0,0 -2775.09,-323.8 -1506.81,-4648.5 0,0 598.7,-1178.8 104.66,-4567.01 -31.46,-215.81 162.42,-399.44 379.91,-383.22" /></g><g
             transform="scale(1.003)"
             id="g250"><path
               id="path252"
               style="fill:#0084f0;fill-opacity:1;fill-rule:nonzero;stroke:none"
               d="m 13098.3,16249.8 c 0,0 592.8,50.2 969.3,-188.9 456.2,-289.7 1992.4,-1834.7 1992.4,-1834.7 115.9,-73.6 158.9,-222.7 99.5,-344.8 l -707.6,-1407.9 c -57.5,-114.6 -190.8,-168.7 -311.8,-126.7 -407.5,141.3 -1290.4,456.7 -1632.9,651.2 -423.6,240.6 -1560.1,912.3 -1560.1,912.3 l 1151.2,2339.5" /></g><g
             transform="scale(1.33209)"
             id="g254"><path
               id="path256"
               style="fill:#003c63;fill-opacity:1;fill-rule:nonzero;stroke:none"
               d="m 9497.24,15873.4 c -133.62,340.9 -717.74,426.6 -1138.36,-406.8 -266.04,-527.1 -874.61,-523.1 -839.05,-1209.7 29.95,-579 708.5,-1205.3 932.14,-1396.6 56.45,-48.3 131.75,-69 204.71,-54.9 129.58,25.2 317.17,123.5 392.54,470.5 15.32,70.3 -22.37,141.9 -88.73,169.6 -140.15,58.4 -379.63,293.4 -275.95,530.7 103.67,237.2 466.48,99.2 716.16,-23.8 65.39,-32.1 188.13,23.5 148.34,84.5 -96.54,147.8 -139.93,260.7 -204.04,470.1 -124.92,408.8 557.39,332.4 152.24,1366.4" /></g><g
             transform="scale(1.168)"
             id="g258"><path
               id="path260"
               style="fill:#003c63;fill-opacity:1;fill-rule:nonzero;stroke:none"
               d="m 11612.2,16160.4 c 0,0 828.7,-650.9 516.3,-963.3 -256.2,-256.3 -559.5,-345.5 -719.8,-376 -66.7,-12.7 -134.5,14.6 -173.9,69.9 -214.7,301.7 -1067.1,1286.5 -699.4,1409 0,0 1050.7,-1014.6 1076.8,-139.6" /></g><path
             id="path262"
             style="fill:#ffffff;fill-opacity:1;fill-rule:nonzero;stroke:none"
             d="m 14720.9,12484.8 c -2.9,0 -5.9,0.4 -8.8,1.2 -703.2,188.5 -1304,419.4 -1785.5,686.2 -386.7,214.3 -698.2,452.2 -925.7,707.2 -391.6,438.7 -399.8,773.8 -399.9,787.8 -0.2,18.7 14.8,34 33.5,34.3 18.4,-0.2 34,-14.8 34.2,-33.4 v 0 c 0.1,-3.3 9.9,-329 388.4,-750 223.3,-248.3 529,-480.5 908.7,-690.2 475.7,-262.6 1069.1,-490.2 1763.8,-676.5 18.1,-4.8 28.8,-23.4 24,-41.5 -4.1,-15.1 -17.8,-25.1 -32.7,-25.1" /></g></g></g></g></svg>
